<?xml version="1.0" ?><svg enable-background="new 0 0 512 512" id="Layer_1" version="1.1" viewBox="0 0 512 512" xml:space="preserve" xmlns="http://www.w3.org/2000/svg" xmlns:xlink="http://www.w3.org/1999/xlink"><g><g><linearGradient gradientUnits="userSpaceOnUse" id="SVGID_1_" x1="0.0000038" x2="512" y1="256" y2="256"><stop offset="0" style="stop-color:#F35CB5"/><stop offset="1" style="stop-color:#EC008C"/></linearGradient><circle cx="256" cy="256" fill="url(#SVGID_1_)" r="256"/><linearGradient gradientUnits="userSpaceOnUse" id="SVGID_2_" x1="42.6666679" x2="469.3333435" y1="256.0005188" y2="256.0005188"><stop offset="0" style="stop-color:#EC008C"/><stop offset="1" style="stop-color:#F35CB5"/></linearGradient><path d="M256,469.3338623c-117.6309357,0-213.3333282-95.7023926-213.3333282-213.3333435    c0-117.6314545,95.7023926-213.333313,213.3333282-213.333313c117.636261,0,213.3333435,95.7018661,213.3333435,213.333313    C469.3333435,373.6314697,373.636261,469.3338623,256,469.3338623z" fill="url(#SVGID_2_)"/></g><g><path d="M268.9994812,175.1141357v197.1429443C306.6463928,355.5237427,346.56427,349.4154663,384,354.7738647    c-0.0003967-65.7141418-0.0003967-131.4282684,0-197.142395    C346.5637207,152.2736053,306.6469421,158.3824005,268.9994812,175.1141357z M363.4773254,324.5402527    c-25.319458-3.615448-52.1242676,0.8037415-77.5290527,12.7957458l-4.26828-9.0432129    c27.1808167-12.8293152,55.9573364-17.5535889,83.2133484-13.6495972L363.4773254,324.5402527z M363.4773254,284.4554749    c-25.319458-3.6159973-52.1242676,0.8005371-77.5290527,12.792511l-4.26828-9.0426636    c27.1808167-12.8298645,55.9504089-17.5413208,83.2133484-13.6474609L363.4773254,284.4554749z M363.4773254,244.3674622    c-25.319458-3.6159973-52.1242676,0.8053436-77.5290527,12.7951965l-4.26828-9.0426636    c27.1808167-12.8320007,55.9573364-17.5493317,83.2133484-13.6501312L363.4773254,244.3674622z M363.4773254,204.281601    c-25.319458-3.6159973-52.1242676,0.8058624-77.5290527,12.7957306l-4.26828-9.0431976    c27.1808167-12.8320007,55.9573364-17.5514679,83.2133484-13.6495972L363.4773254,204.281601z" opacity="0.3"/><path d="M144,157.6314697c0,65.7141266,0,131.4282532,0,197.142395    c37.436264-5.3583984,77.352005,0.7503967,114.9994812,17.4832153V175.1141357    C221.3525391,158.3824005,181.436264,152.2736053,144,157.6314697z M242.0517273,337.3359985    c-25.4031982-11.9920044-52.2053223-16.4085388-77.52948-12.7957458l-1.4161072-9.8970642    c27.270401-3.8965149,56.0401154,0.817627,83.2127991,13.6495972L242.0517273,337.3359985z M242.0517273,297.2479858    c-25.4053192-11.9898376-52.2053223-16.401062-77.52948-12.792511l-1.4161072-9.8976135    c27.2561188-3.8938599,56.0351868,0.8175964,83.2127991,13.6474609L242.0517273,297.2479858z M242.0517273,257.1626587    c-25.4031982-11.9946594-52.2053223-16.4090576-77.52948-12.7951965l-1.4161072-9.8975983    c27.270401-3.9039917,56.0401154,0.8197327,83.2127991,13.6501312L242.0517273,257.1626587z M246.3189392,208.0341339    l-4.2672119,9.0431976c-25.4031982-11.9925385-52.2053223-16.4037323-77.52948-12.7957306l-1.4161072-9.8970642    C190.3765411,190.482666,219.1462555,195.2048035,246.3189392,208.0341339z" opacity="0.3"/></g><g><path d="M260.9994812,167.1141357v197.1429443C298.6463928,347.5237427,338.56427,341.4154663,376,346.7738647    c-0.0003967-65.7141418-0.0003967-131.4282684,0-197.142395    C338.5637207,144.2736053,298.6469421,150.3824005,260.9994812,167.1141357z M355.4773254,316.5402527    c-25.319458-3.615448-52.1242676,0.8037415-77.5290527,12.7957458l-4.26828-9.0432129    c27.1808167-12.8293152,55.9573364-17.5535889,83.2133484-13.6495972L355.4773254,316.5402527z M355.4773254,276.4554749    c-25.319458-3.6159973-52.1242676,0.8005371-77.5290527,12.792511l-4.26828-9.0426636    c27.1808167-12.8298645,55.9504089-17.5413208,83.2133484-13.6474609L355.4773254,276.4554749z M355.4773254,236.3674622    c-25.319458-3.6159973-52.1242676,0.8053436-77.5290527,12.7952118l-4.26828-9.0426788    c27.1808167-12.8320007,55.9573364-17.5493317,83.2133484-13.6501312L355.4773254,236.3674622z M355.4773254,196.281601    c-25.319458-3.6159973-52.1242676,0.8058624-77.5290527,12.7957306l-4.26828-9.0431976    c27.1808167-12.8320007,55.9573364-17.5514679,83.2133484-13.6495972L355.4773254,196.281601z" fill="#FFFFFF"/><path d="M136,149.6314697c0,65.7141266,0,131.4282532,0,197.142395    c37.436264-5.3583984,77.352005,0.7503967,114.9994659,17.4832153V167.1141357    C213.3525391,150.3824005,173.436264,144.2736053,136,149.6314697z M234.0517273,329.3359985    c-25.4031982-11.9920044-52.2053223-16.4085388-77.52948-12.7957458l-1.4161072-9.8970642    c27.270401-3.8965149,56.0401154,0.817627,83.2127991,13.6495972L234.0517273,329.3359985z M234.0517273,289.2479858    c-25.4053192-11.9898376-52.2053223-16.401062-77.52948-12.792511l-1.4161072-9.8976135    c27.2561188-3.8938599,56.0351868,0.8175964,83.2127991,13.6474609L234.0517273,289.2479858z M234.0517273,249.162674    c-25.4031982-11.9946747-52.2053223-16.4090729-77.52948-12.7952118l-1.4161072-9.8975983    c27.270401-3.9039917,56.0401154,0.8197327,83.2127991,13.6501312L234.0517273,249.162674z M238.3189392,200.0341339    l-4.2672119,9.0431976c-25.4031982-11.9925385-52.2053223-16.4037323-77.52948-12.7957306l-1.4161072-9.8970642    C182.3765411,182.482666,211.1462555,187.2048035,238.3189392,200.0341339z" fill="#FFFFFF"/></g></g></svg>